<?xml version="1.0" encoding="UTF-8"?>
<svg version="1.1" viewBox="0 0 1744 1072" width="1280" height="1280" xmlns="http://www.w3.org/2000/svg">
<path transform="translate(867,212)" d="m0 0h28l16 3 14 5 15 8 12 9 14 14 10 15 7 15 4 13 2 11v26l-3 16-7 19-10 16-8 10-11 11-2 1 1 8 6 23 3 20v30l-4 25-6 21-8 18-7 12-9 13-13 15-11 11-3 4h-2l-2 4-50 50-1 2h-2l-2 4-31 31-4 5-1 3 32-6 39-8h18l11 4 6 4 8 9 3 7 1 5v7l-4 13-6 9-9 8-18 8-33 10-30 10-35 11-27 9-30 9-15 5-25 6-14 1h-12l-17-2-53-14-118-32-8-2-1 6-5 7h-87l-4-2-4-6v-168l4-6 2-1h89l4 3 3 9 21-3 18-3-3-5-11-12-12-13-11-15-10-18-8-19-4-13-4-19-2-17v-15l3-26 4-17 6-17 8-16 7-1 6 3v8l-9 23-6 24-1 8v33l3 18 5 19 7 16 9 16 9 12 12 14 24 24h9l75-13 8-1h35l40 7 22 5 10 4 11 8 8 9 4 8 1 4v19l-4 8-9 10-8 5-10 3h-26l-50-6-9 1-5 8-1 4 3 7 3 3 10 3 80 14h16l25-5 6-3 13-13 7-8 40-40 2-3h2l2-4 28-28 7-8 25-25 7-8 8-10 10-16 8-17 6-20 3-16 1-8v-24l-3-21-4-17-2-5-6 1-18 6-17 3h-19l-18-3-17-6-13-7-11-8-12-11-10-13-8-15-8-21-9 3-19 11-12 9-11 9-10 10-9 7-8 1-8-6-12-11-13-11-16-11-10-6-16-7-22-6-14-2h-16l-19 3-17 5-16 9-10 8-14 11-5-1-5-5 1-7 11-11 18-13 19-9 15-4 14-2h30l19 3 24 8 16 8 16 10 16 13 15 14 4-1 13-12 12-10 15-10 18-10 12-5 1-1 2-23 3-13 6-15 4-5 5-1 7 4 1 5-7 19-2 10v30l4 15 7 16 8 11 9 10 14 10 19 9 13 3 11 1h9l17-2 15-5 16-9 13-11 11-14 8-16 4-13 2-12v-18l-3-15-6-16-8-13-11-12-9-8-16-9-13-5-16-3h-16l-17 3-15 6-14 8-8 5-5-2-4-6 1-5 8-7 18-10 18-6zm-245 395-33 5-63 11-55 9-5 2v123l144 39 33 9 18 3h21l22-5 50-16 35-11 93-30 10-5 5-4 5-8 1-4v-8l-4-6-5-4-7-2h-11l-36 7-93 18-17 1-20-2-72-13-11-4-8-7-4-8-1-3v-14l3-8 8-9 10-4h10l52 6h20l8-3 7-6 3-6v-11l-4-8-9-8-8-4-16-4-45-8zm-241 12v152l1 1h66l1-1 1-7v-144l-1-1z" fill="#1A4999"/>
<path transform="translate(1367,211)" d="m0 0 8 1 5 4 2 5-1 9-5 8-4 6-3 9-4 15-4 10v10l-3 14-1 8-1 14 2 3v7l-4 8-2 13 1 29 1 16 2 11 4 32 1 17 1 12-2 4-9-1-5-3 1-4 2-1h6l-1-10-2-10-1-14-3-1 1-4 1-1v-10l-11 6-2 3-8 1v5l6-1 1-4h3l5 6v10l-2 10v9l-3 6h5v6l-4 5-5 2-2 20v6l5-1 2-1 2-5h2l-1 11-8 5-4 4h-2l1 2h8l5-5 7-16 2-12 7-5 1 5-3 5-2 12-8 14-8 7-3 1h-14l-9 1-5-4 1-5 7-6 7-10 4-11 2-13v-12l-5-58-2-21-1-3-1-13-1-30-5-1-7-1-1-4 5-4h8l1-3-5 1h-30l2 5 3 19 5 13 1 1v5l-3 4 1 6 3 6-1 16-4 7-10 11-7 4-16 4h-15l-12-5-6-5-7-10-5-12-2-9-2-20v-13l3-17 5-17 5-10 9-10 10-7 3-1h8l8 5 4 7-1 7-10 10-4 9-5 33v14l3 19 3 10 4 6 1 3h5l5-6 4-14v-38l-3-14-4-11 1-7 5-5h43l8-1 2-5 6-36 7-31 6-17 6-11 5-5 8-4zm-27 50-3 7-1 5 3-1 4-10zm-6 24-2 3v5l5-2-1-5zm-3 11-3 8v2l7-1 4-2 1-4-1-2zm-2 13-2 2-1 8 1 1h5l7-8 1-3zm-2 19-2 1v2l6-1v-2zm-3 15v12h6l2-2-1-7-4-3zm-50 1 1 3zm51 14-1 1v10l5 2 3-7v-6zm16 1-1 5 2 3 3-1v-6zm-12 14-3 4 1 2 4-4v-2zm12 1-1 1 1 10 3 9 3 1v-13l-3-7zm-13 9-4 3 1 4 7-1-2-5zm-109 6v2h3v-2zm122 11 3 9 6 4-1-9-2-4zm-8 1-2 2 1 4 4-1-2-5zm-1 14 3 5 1-4zm4 5m-4 17 2 4-1-4zm1 6-1 2v10h4l2-1 1-7zm-1 20 1 4 2 1-2 4v4h7l-1-6-4-7z" fill="#0E1116"/>
<path transform="translate(1154,573)" d="m0 0h20l5 5-3 7 5 10 1 3-1 28v21l-2 12-3 10-9 6-9 3-5-1-1-1 1-8 3-14 1-7 2-39-5 3-4 9-4 6-3 10-6 14-5 23-6 29-1 6h-2v12l-2 9v42l5 23 5 13 6 7 9 4h7l12-5 12-7 3-2h4l-1 4-7 7-14 9-10 4-6 1h-9l-9-2-10-4-10-7-9-9-7-12-5-16-2-18v-12l2-20 4-22 2-12 4-10 2-10 4-4 2-4-2-2 5-10v-10l5-5h2l-1-10 9-13 2-6h-3l2-6 10-17 4-5 11-8zm-38 88-3 3v2l6 1 2-5zm-7 11-1 1-1 13 4-1 4-9v-3zm0 22-6 2-1 4 3 3 6-4 1-5zm-8 11-3 4v5l5 5 4 1 1-1v-5l-4-4-1-5zm-5 20-1 1v5l5-1-1-5zm5 15m-2 8-6 8 1 5 4-2 6-8-1-3zm-5 18v4l4 1 1-4z" fill="#090A0D"/>
<path transform="translate(1121,207)" d="m0 0h23l12 4 8 7 4 9-1 11-3 16-8 11-3 3-5-1 1-9 3-18 1-2v-7l-7-14-5-4-3-1h-14l-10 4-3 3-1 7-3 4 1 6 8 14 8 18 10 16 10 14 13 17 7 10 12 19 8 14 7 20 4 13 2 12v21l-3 10-7 12-9 11-24 15-9 2h-14l-16-3-15-5-8-5-4-8-2-7v-17l4-15 8-16 5-9 8-16 8-12 4-1 1 5-5 13-6 7-1 3 4 1v2l-7 3-1 5h7l4-6 3-5 2-1 1 3-3 8-5 8-3 13-1 9-3 4-5 1-2 7-3 5 7-2 7 9 6 3h8l16-10 5-4 3 1-7 7-15 10-2 3 13-4 6-4 5-5 7-9 4-7v-3h-4l2-11 1-3v-12l-2-13-4-16-6-19-11-21-11-17-10-16-10-12-12-19-6-13-2-6-1-7-4-3v-2h2l1-9 4-6 7-7 10-6 10-4zm20 117-1 4 2 3h2l2 5 3 10 5 9 3 7 7 20 3 9 3 18 4 6h9l1-1-1-7-5 1-2-4-3-14-2-4-1-9-1-1-1-7 5-2-2-1-5 1-4-7-3-10-5-8-4-3-4-10-1-4zm33 51m3 1v2l3-1zm3 2m-3 6-1 1 1 8 3 11 5 1-1-13-4-6zm-71 17-2 3v5l3 2 4-1 3-4v-2zm-4 15-2 2-2 10 7 1 4-3 1-7-1-2zm74 1-1 3 3 8 2 3 5-1 3-6-1-5zm5 19-6 7-6 5v4h5l6-8 3-5v-3z" fill="#0C0E13"/>
<path transform="translate(700,441)" d="m0 0 4 1 5 5 6 10 13 24 9 16 12 22 8 13 6-9 12-20 7-11 3-3 18-1h61l7 2 2 5-1 7-6 2-72 1-8 13-9 15-11 18-7 8-6-1-6-8-10-18-13-24-9-16-11-19-4-3-10 17-13 23-12 19-5 5-5-1-8-9-11-17-7-11-2-1-2 5-15 24-3 2-37 1-28-1-3-4v-7l5-5 55-1 6-9 12-20 7-9 5-2 8 7 14 23 5 7 4-2 13-22 14-24 8-13z" fill="#1D4B9B"/>
<path transform="translate(1245,296)" d="m0 0h8l8 5 4 7-1 7-10 10-4 9-5 33v14l3 19 3 10 4 6 1 3h5l5-6 4-14v-38l-3-14-4-11 1-7 5-5h19l14 4-3 2-4 1h-10l2 5 3 19 5 13 1 1v5l-3 4 1 6 3 6-1 16-4 7-10 11-7 4-16 4h-15l-12-5-6-5-7-10-5-12-2-9-2-20v-13l3-17 5-17 5-10 9-10 10-7zm29 48 1 3zm-55 45v2h3v-2z" fill="#060709"/>
<path transform="translate(1231,654)" d="m0 0h13l8 4 8 6 5-1 1-1h12l6 3v11l-1 11v34l2 30 4 23 5 11-1 3h-20l-5-5-5-6-5-17-4-25-1-1-8 14-9 12-8 6-2 1h-16l-6-3-3-4-3-10-2-15v-14l3-17 4-17 5-13 9-12 8-6zm6 10-7 10-6 15-4 16-3 23 3 21 3 3 5-6 10-16 8-21 9-31v-3l-9-1-5-10zm27 43-4 4 1 5 4 1 2-1v-8zm-2 13-2 2 1 5 5 1 2-6-1-2zm-11 10m10 2-1 2 2 6v15l3 11 2 2 4-1v-6l-1-3 1-2-1-16-4-7z" fill="#0A0C0F"/>
<path transform="translate(1407,221)" d="m0 0 8 1 10 5 3 2v2l3 1v9l-3 22-1 33-2 7v15l14 2v3l-14 8-3 4v11l-2 6v8l1 2v7l-3 14 1 2-1 17v8l-1 3v10l1 6v10l2 11v4l8-3 1 1 1 14-4 6-5 3-11-1-9-2-7-7-7-16-2-7-1-10v-30l6-56v-9l-3-1-9 1-2-1 1-4 5-4 9-3 3-26 2-23 5-42 2-9zm-2 44-3 3-1 8 4 1 2-2v-9zm-3 14-2 5v8l7 1-1-13zm-1 18-2 1-3 24 2 1 11-4 5-5-1-4-3-1-3 3h-3v-7l5-2-1-5zm-3 38-2 2-6 58-1 26 2 20 2 3h10l2-4-5-5 1-6-2-3 2-3v-7l3-16v-8l4-19-1-3h-5l-1-3 5-2 2-2 2-11h-2l2-7-1-7-1-3z" fill="#0F1116"/>
<path transform="translate(1402,659)" d="m0 0h7l6 5 2 5v15l-3 21-4 10-8 10-8 7-5 5 2 30 4 9 5 5 4 3 4-1 5-4 8-10 7-9 5-5 14-15 2 1-2 5-11 17-5 12-8 10-8 7-9 1-16-2-13-7-7-8-4-9-1-8-1-7-3-24 2-4 3-18 5-10 1-12 4-7 9-9 9-6zm-1 10-6 22-3 7v11l4 1 5-6 3-7 2-10v-16l-1-2zm-27 35-1 5h2v-5zm-3 16-1 2h4v-2zm3 29-1 5h4l-1-5zm4 15-2 4 3 3v-7z" fill="#090B0F"/>
<path transform="translate(1315,648)" d="m0 0h6l7 7 1 2 1 11 6-1 21-10 13-6h4l-1 4-27 18-9 7h-2v2h-2l-2 4-5 9 2 10-3 5v8l1 2 2 14 2 10-1 2v9l6 23 1 3v7l-4 3-9-1-12-3-7-4-1-3-3-37v-32l2-36 2-15 5-8z" fill="#07090C"/>
<path transform="translate(878,275)" d="m0 0h7l4 4 1 32h31l4 3 1 5-3 6-4 2h-29v23l-1 9-4 4h-6l-5-4-1-3v-29h-31l-3-3-2-3v-5l4-5 31-1 1-30z" fill="#1D4B9B"/>
<path transform="translate(1326,421)" d="m0 0 2 4 1 1v6l6-1 1-4h3l5 6v10l-2 10v9l-3 6h5v6l-4 5-5 2-2 20v6l5-1 2-1 2-5h2l-1 11-8 5-4 4h-2l1 2h8l5-5 7-16 2-12 7-5 1 5-3 5-2 12-8 14-8 7-3 1h-14l-9 1-5-4 1-5 7-6 7-10 4-11 2-13v-12l-3-36zm6 16 2 4-1-4zm1 6-1 2v10h4l2-1 1-7zm-1 20 1 4 2 1-2 4v4h7l-1-6-4-7z" fill="#191D25"/>
<path transform="translate(1326,421)" d="m0 0 2 4 1 1v6l6-1 1-4h3l5 6v10l-2 10v9l-4 7-3-4v-2h-3l1 4 3 1-2 4-3 7h-1l-4-47zm6 16 2 4-1-4zm1 6-1 2v10h4l2-1 1-7z" fill="#171E2A"/>
<path transform="translate(1358,484)" d="m0 0 2 1-1 6-2 3-2 12-8 14-7 6-6-2 4-2 5-5 7-16 2-12z" fill="#3C4451"/>
<path transform="translate(1123,387)" d="m0 0 2 3-3 8-5 8-1 5-3-3 1-4-5-1-3-3 2-1h7l4-6 3-5z" fill="#353D4A"/>
<path transform="translate(1389,399)" d="m0 0h1v34l-3 13-2-4 1-10 2-18z" fill="#90A7CD"/>
<path transform="translate(1447,740)" d="m0 0 2 1v2h-3l-2 4-12 12v-3zm-17 19m-2 1 2 1-2 1z" fill="#8D9095"/>
<path transform="translate(1340,468)" d="m0 0h4v6l-4 5-5 1 2-4h3l-2-7z" fill="#39455B"/>
<path transform="translate(1331,463)" d="m0 0 2 4 3 1-2 4-3 7h-1l-1-12z" fill="#7787A3"/>
<path transform="translate(1293,325)" d="m0 0h11l7 1v2h-15z" fill="#355EA5"/>
<path transform="translate(1326,421)" d="m0 0 2 4 1 1-1 19h-1l-1-13z" fill="#B4C3DD"/>
<path transform="translate(1341,483)" d="m0 0 2 1v11l-2 1-1-2v-10z" fill="#505B6F"/>
<path transform="translate(1340,444)" d="m0 0 2 2 1 5-2 5-1-2h-2l1-8z" fill="#879BBD"/>
<path transform="translate(681,801)" d="m0 0h2v2h-2z" fill="#FEFEFE"/>
<path transform="translate(1161,561)" d="m0 0 2 1-2 1z" fill="#FEFEFE"/>
<path transform="translate(1321,641)" d="m0 0" fill="#FEFEFE"/>
<path transform="translate(1242,641)" d="m0 0" fill="#FEFEFE"/>
<path transform="translate(1117,665)" d="m0 0" fill="#FEFEFE"/>
</svg>
