<?xml version="1.0" encoding="UTF-8"?>
<svg version="1.1" viewBox="0 0 1744 1072" width="1280" height="1280" xmlns="http://www.w3.org/2000/svg">
<path transform="translate(0)" d="m0 0h1744v1072h-1744z" fill="#FDFDFD"/>
<path transform="translate(873,210)" d="m0 0h15l17 2 16 5 13 6 10 6 10 8 11 11 11 15 8 17 4 11 3 15v26l-5 20-6 15-10 16-8 10-11 11-2 1 1 5 5 18 3 14 2 22v15l-2 19-5 22-6 17-8 16-7 12-8 11-9 10-7 8-16 16-7 8-40 40-1 2h-2l-2 4-35 35-1 3 20-5 45-9 8-1h10l15 4 8 6 6 7 5 11 2 8-2 2-3 12-6 9-9 9-16 8-27 9-48 15-52 17-48 15-21 5-7 1h-28l-25-5-70-19-40-11-41-11-12-3-2 6-4 5-2 1-10 1h-74l-7-3-5-6v-57h-4v-2h4l-1-77-2-1v-2h3v-28l2-6 5-4 3-1h86l5 5 3 7 10-1 18-3h9l-2-5-5-4-7-8-10-10-10-13-10-16-8-17-7-21-5-25-1-9v-20l3-25 5-20 7-19 5-9 3-3 7-1 5 3 2 4-1 7-8 21-5 18-2 13-1 13v14l2 17 4 18 6 18 8 16 7 11 10 13 9 9v2l4 2 7 8 12 12 17-2 68-12 8-1h31l39 7 24 5 12 5 10 7 8 9 6 11 1 4v16l-4 10-9 10-9 6-12 4h-23l-48-6h-12l-5 8 1 7 5 5 12 3 56 10 24 4 14-1 20-4 8-3 33-33 7-8 33-33 5-6 35-35 2-3h2l2-4 14-14 9-12 8-13 8-17 6-18 4-21 1-14v-12l-3-22-4-16-2-7-6 1-10 4-17 4-6 1h-19l-17-3-16-5-16-8-13-10-13-13-9-12-9-17-5-15-3-1-19 10-12 8-9 7-12 11-11 10-8 4-9-3-26-24-18-13-16-8-18-7-19-4-11-1h-13l-17 2-18 5-17 9-13 10-11 9h-6l-6-7v-5l8-10 12-10 15-9 10-5 17-6 19-3h26l23 4 18 6 14 6 19 11 18 14 12 11 5 5 4-2 11-11 14-11 10-7 13-8 20-9 1-2 1-17 3-14 5-15 4-7 5-3h6l5 5 2 5-7 18-3 16v20l4 18 7 16 7 10 9 10 10 9 12 7 13 5 14 3h26l17-4 16-8 9-6 10-9 9-11 8-15 5-16 2-16-1-16-3-14-6-15-8-12-9-10-10-9-10-6-2 4-1-4v-2l-18-6-13-2h-16l-17 3-14 5-12 7-10 6-5-1-5-4-1-7 4-6 13-9 15-7 16-5z" fill="#0D4BAE"/>
<path transform="translate(633,608)" d="m0 0 20 1 53 9 12 4 9 7 6 8 1 3v9l-3 6-7 6-6 2-14 1-35-4-19-2h-18l-10 6-6 8-4 11v8l3 10 6 8 9 6 5 2 71 13 12 2h28l67-13 60-12h16l7 3 5 6 1 8-3 8-6 7-12 6-58 19-91 29-30 9-23 5-23-1-23-5-69-19-30-8-40-11-26-7-1-119 3-3 35-6 103-17z" fill="#FDFDFD"/>
<path transform="translate(1367,210)" d="m0 0 8 1 6 4 2 7-1 9-6 9-3 4-4 13-5 18-2 4v9l-3 15-1 6v7l-1 7 3 7-1 6-4 5-1 6v36l1 17 1 5 2 8 4 41v7l-1 4 2 4v5l-4 4-12-3-5 1 1 7 1 11-2 3-3-1v-15h-2l-2 6v8l1 3-2 3v5l5-1 1-6 8-1-4 4v6l2 1 4-13v-7l7-5h5l-1 5-4 6 1 7-6 11-4 8-8 6-7 3-5-1-4-1-7 3-5-1-5-4-1-4 13-13 6-12 3-13v-20l-3-31-2-23-2-9-1-16-1-9v-33h-10l-4-2 1-6 2-3h-17l-4 1 2 7 2 15 5 13 1 6-3 5 3 9 1 2-1 16-4 8-13 13-11 4-13 3-16-2-10-5-7-7-6-10-4-10-4-28v-14l5-25 6-16 6-8 8-8 9-5 2-1h9l8 6 4 7-1 7-5 6-6 5-3 8-3 21-2 12v10l2 18 3 12 6 10 4 1 4-5 4-15v-36l-4-18-4-9 1-5 5-6 7-2 13 1h24l9-1 3-17 7-36 6-25 8-18 4-6 5-4z" fill="#06080E"/>
<path transform="translate(1127,205)" d="m0 0h8l16 3 10 5 5 6 3 7v7l-2 8-2 14-7 9-5 5h-5l-1-1v-7l5-24-1-7-6-12-4-4-3-1h-13l-13 5v8l-4 4 1 5 7 12 9 20 14 23 12 15 10 14 15 23 8 14 9 24 5 19v27l-4 11-6 9-9 12-18 11-6 4-8 2h-17l-26-6-12-6-4-6-3-10v-19l3-12 9-19 5-7 3-8 10-18 4-4 4-1 2 2-2 10-2 6-4 5-4 4 4 3-1 3-6 3-2 4 7-2 3-5 1-2h2l2-4 3 1-2 10-6 8-3 12-1 13-2 3h-7v6l-3 4h6l3 3 3 5 8 3 7-1 17-10 5-3h3l-2 4-7 6-15 10h-2v2l15-6 11-10 7-12 1-4-2 1-1 3-4-1 3-6 3-13v-11l-3-17-4-15-6-16-12-23-9-14-11-17-9-11-10-15-8-16-3-14-5-2v-2l3-2 1-9 7-9 11-8 11-5z" fill="#05080F"/>
<path transform="translate(1164,571)" d="m0 0h9l5 3 1 1-1 7-1 4 5 8 1 3-1 39v12l-4 19-3 5-16 7h-6l-2-2v-7l3-11 2-15v-11l2-24-3 3-4 8-5 8-2 9-6 12-3 17-5 21-3 20-3 4 1 7-3 10v41l5 24 5 13 4 6 7 4 7 1 12-4 12-6 6-4h4l-1 7-9 8-19 11-4 1h-16l-15-5-11-7-9-8-7-10-5-12-3-14-1-10v-18l2-18 3-16 3-18 4-10 2-10 3-6 3-1-1-6 4-5v-6l-1-2 3-6 4-3v-9l7-10 4-9-5 2 6-11 8-14 7-8 10-7 3-1z" fill="#05060B"/>
<path transform="translate(383,621)" d="m0 0h65l1 21v127l-1 1h-65l-1-1v-147z" fill="#FDFDFD"/>
<path transform="translate(700,440)" d="m0 0 6 1 6 8 13 23 11 19 7 14 12 21 3 4 13-23 8-13 6-7h84l5 5 1 7-4 5-10 2-68 1-2 6-13 21-11 19-5 6 1 4h-2l-1-3-8-1-5-6-10-18-12-22-10-18-13-23h-2l-10 19-8 13-10 17-6 10-5 4h-6l-5-4-17-26-3-5v-2l-3 1-6 11-8 12-5 5-2 1h-61l-5-3-3-5 1-6 5-5 57-1 2-6 9-15 10-15 6-4 7 2 8 11 12 19 3 5 2 1 2-6 15-26 10-17 8-13z" fill="#0D4BAE"/>
<path transform="translate(1234,652)" d="m0 0h7l9 3 11 8 5-2h14l5 4 1 7-2 16v35l1 16 1 5 1 15 2 6 2 10 4 8v5l-4 2-18-1-8-7-4-7-4-16-3-23-7 10-7 11-8 8-10 4-10-1-9-3-3-5-4-13-1-9v-20l2-13 2-5 4-17 7-14 9-10 8-5z" fill="#05060B"/>
<path transform="translate(1407,220)" d="m0 0 10 1 10 6 6 7-1 8-2 10-1 15-1 31-2 5v14l6 1 8 1-1 5-15 9-1 6v8l-2 5v8l2 3-2 11-1 5v12l-1 3v16l-1 4v8l1 5v10l2 15 9-2 1 5-1 4 1 7-3 6-5 3-6 1-14-2-6-4-5-6-5-11-3-9-1-15v-28l4-35 2-28h-12l-1-1 1-7 8-4 5-2 2-14 3-34 5-43 2-8z" fill="#04060D"/>
<path transform="translate(1404,657)" d="m0 0 6 1 5 4 3 7v18l-2 9-2 13-4 8-11 13-6 4h-2v15l1 10v7l4 10 9 7 4-2 9-10 9-11 6-7h2l2-4 10-9 3-1-1 5-11 18-4 9-4 7-9 11-6 4-3 1h-7l-7-1-10-2-11-6-5-5-5-7-3-9v-10l-2-4-2-22 3-9 3-16 2-5 3-4-1-8 6-11 9-8 13-8z" fill="#05070D"/>
<path transform="translate(1321,640)" d="m0 0 2 1-2 6 7 6 3 5v9l5-1 30-15 9-1-1 5-11 8-21 14-9 8-5 8-1 6 2 4-1 5-2 3 1 9 2 15 2 6-1 5-1 4 4 17 5 18-1 4-5 3-9-1-15-4-5-4-2-9-2-34v-25l2-41 1-11 5-10 8-6 4-2z" fill="#04050A"/>
<path transform="translate(879,273)" d="m0 0 7 1 5 5v30h28l6 3 2 4v6l-4 5-13 2h-19v30l-6 5h-6l-6-5-1-3v-27h-22l-10-2-4-6 1-7 6-5h29v-28l3-5z" fill="#0E4CAF"/>
<path transform="translate(1237,665)" d="m0 0 4 1 3 8 9 2 1 2-3 10-9 29-5 12-12 20-3 1-3-11-1-13 4-26 6-20z" fill="#FEFEFE"/>
<path transform="translate(1398,336)" d="m0 0h10v10l-2 3 3 3-2 10-6 5-1 4h6l1 3-4 17-1 3 1 5-3 15v9l-3 3v2l4 3-6 5-1 2 7-1 2 1 1 4-1 1h-10l-1-1-1-8v-36l1-15 2-17 3-28z" fill="#FEFEFE"/>
<path transform="translate(1347,433)" d="m0 0 4 2 1 14 3 13-1 4-13 1 1-5v-9l1-10 3-2-1-1v-5z" fill="#FEFEFE"/>
<path transform="translate(1403,670)" d="m0 0 2 2v14l-3 13-5 9-4 1v-10l3-6 2-10 4-12z" fill="#FEFEFE"/>
<path transform="translate(1158,361)" d="m0 0 5 3 4 5 2 11 1 7 3 6 4 17v3l-5-2-2-7-4-21-8-19z" fill="#FEFEFE"/>
<path transform="translate(1262,734)" d="m0 0 4 2 3 4v21l1 6h-3l-4-12v-10h2l-3-8z" fill="#FEFEFE"/>
<path transform="translate(1400,299)" d="m0 0h7v4l-4 2 1 10 7-5 2 1-2 5-9 5h-4l1-16z" fill="#FEFEFE"/>
<path transform="translate(1347,418)" d="m0 0h3v8l-4 6-4-1-3-4 1-4 5-3z" fill="#FEFEFE"/>
<path transform="translate(1177,418)" d="m0 0 10 2v3l-2 2-2 6-4-2-2-5z" fill="#FEFEFE"/>
<path transform="translate(1344,511)" d="m0 0 1 2-4 7-3 2-9 1v-2l5-2 5-6z" fill="#FEFEFE"/>
<path transform="translate(1337,309)" d="m0 0 2 2-9 9h-3l1-8 1-2z" fill="#FEFEFE"/>
<path transform="translate(1149,342)" d="m0 0 5 2 6 10v3l-4-1-6-9z" fill="#FEFEFE"/>
<path transform="translate(1340,480)" d="m0 0h2l2 9-1 7h-4v-13z" fill="#061835"/>
<path transform="translate(1341,375)" d="m0 0 3 1 2 6 1 12-3-1-2-8-2-6z" fill="#FEFEFE"/>
<path transform="translate(1103,417)" d="m0 0 5 1 1 1-1 8-5 1-1-4z" fill="#FEFEFE"/>
<path transform="translate(1177,385)" d="m0 0 3 1 4 15v3l-4-1-3-15z" fill="#FEFEFE"/>
<path transform="translate(1326,359)" d="m0 0h6l-1 7-5 3-2-3 1-6z" fill="#FEFEFE"/>
<path transform="translate(1333,297)" d="m0 0 5 1v5l-5 2h-3v-6z" fill="#FEFEFE"/>
<path transform="translate(1402,280)" d="m0 0 4 1-1 5 1 6h-5v-9z" fill="#FEFEFE"/>
<path transform="translate(1325,344)" d="m0 0 4 2 2 2-1 5-5 1-1-8z" fill="#FEFEFE"/>
<path transform="translate(1100,707)" d="m0 0h2l1 6h3l1 6-4-1-4-5z" fill="#FEFEFE"/>
<path transform="translate(1181,436)" d="m0 0 2 1-8 13-4 2-1-2 7-8 3-5z" fill="#FEFEFE"/>
<path transform="translate(1342,400)" d="m0 0 5 1 2 5-1 5-3-1z" fill="#FEFEFE"/>
<path transform="translate(1106,403)" d="m0 0 7 1-1 4-5 2-2-1z" fill="#FEFEFE"/>
<path transform="translate(1334,444)" d="m0 0h2l1 6v5l-4-1v-8z" fill="#FEFEFE"/>
<path transform="translate(1100,749)" d="m0 0h3l-2 4-6 7h-2l2-4 4-6z" fill="#FEFEFE"/>
<path transform="translate(1404,267)" d="m0 0 3 3v5l-5 1v-6z" fill="#FEFEFE"/>
<path transform="translate(1110,673)" d="m0 0h3l-1 6-3 6-1-4 1-7z" fill="#FEFEFE"/>
<path transform="translate(1104,665)" d="m0 0 2 4-1 2h-2l-2 4-2-4 3-4h2z" fill="#14489A"/>
<path transform="translate(1264,708)" d="m0 0 2 1v6h-4l-1-2z" fill="#FEFEFE"/>
<path transform="translate(1109,695)" d="m0 0h2l-1 4-3 2-4-1 4-4z" fill="#FEFEFE"/>
</svg>
